# xmcd CD database file
# Copyright (C) 1993-2000  Ti Kan
#
# Track frame offsets:
#	150
#	13275
#	26597
#	40775
#	54900
#	68402
#	82270
#	95257
#	108935
#	122055
#	135167
#	148522
#	161130
#	173617
#	186195
#	197230
#	210260
#	222197
#	234762
#	248137
#	260615
#	272922
#	286767
#
# Disc length: 4009 seconds
#
# Revision: 1
# Processed by: cddbd v1.4b42PL1 Copyright (c) Steve Scherf et al.
# Submitted via: xmcd 2.6 PL0
#
DISCID=3c0fa717
DTITLE=Blind Lemon Jefferson - The Essential Recordings
DYEAR=1900
DGENRE=
TTITLE0=Got The Blues
TTITLE1=Long Lonesome Blues
TTITLE2=Corrina Blues
TTITLE3=Stocking Feet Blues
TTITLE4=Broke And Hungry
TTITLE5=Shuckin' Sugar Blues
TTITLE6=Bad Luck Blues
TTITLE7=Black Snake Moan
TTITLE8=Match Box Blues
TTITLE9=Right Of Way Blues
TTITLE10=Hot Dogs
TTITLE11=Rambler Blues
TTITLE12=Gone Dead Blues
TTITLE13=One Dime Blues
TTITLE14=Lonesome House Blues
TTITLE15=See That My Grave Is Kept Clean
TTITLE16=Mean Jumper Blues
TTITLE17=Prison Cell Blues
TTITLE18=Christmas Eve Blues
TTITLE19=D B Blues
TTITLE20=Eagle Eyed Mama
TTITLE21=Peach Orchard Mama
TTITLE22=Bed Spring Blues
EXTD=
EXTT0=
EXTT1=
EXTT2=
EXTT3=
EXTT4=
EXTT5=
EXTT6=
EXTT7=
EXTT8=
EXTT9=
EXTT10=
EXTT11=
EXTT12=
EXTT13=
EXTT14=
EXTT15=
EXTT16=
EXTT17=
EXTT18=
EXTT19=
EXTT20=
EXTT21=
EXTT22=
PLAYORDER=
